HIERARCHY
ROOT Hips
{
	OFFSET 0.00000 0.00000 0.00000
	CHANNELS 6 Xposition Yposition Zposition Zrotation Yrotation Xrotation 
	JOINT LHipJoint
	{
		OFFSET 0 0 0
		CHANNELS 3 Zrotation Yrotation Xrotation
		JOINT LeftHip
		{
			OFFSET 1.53139 -1.83434 0.76626
			CHANNELS 3 Zrotation Yrotation Xrotation
			JOINT LeftKnee
			{
				OFFSET 2.56112 -7.03663 0.00000
				CHANNELS 3 Zrotation Yrotation Xrotation
				JOINT LeftAnkle
				{
					OFFSET 2.59983 -7.14299 0.00000
					CHANNELS 3 Zrotation Yrotation Xrotation
					JOINT LeftToe
					{
						OFFSET 0.13742 -0.37757 2.00054
						CHANNELS 3 Zrotation Yrotation Xrotation
						End Site
						{
							OFFSET 0.00000 -0.00000 1.02897
						}
					}
				}
			}
		}
	}
	JOINT RHipJoint
	{
		OFFSET 0 0 0
		CHANNELS 3 Zrotation Yrotation Xrotation
		JOINT RightHip
		{
			OFFSET -1.40122 -1.83435 0.76627
			CHANNELS 3 Zrotation Yrotation Xrotation
			JOINT RightKnee
			{
				OFFSET -2.54052 -6.98003 0.00000
				CHANNELS 3 Zrotation Yrotation Xrotation
				JOINT RightAnkle
				{
					OFFSET -2.63179 -7.23079 0.00000
					CHANNELS 3 Zrotation Yrotation Xrotation
					JOINT RightToe
					{
						OFFSET -0.24131 -0.66299 2.03908
						CHANNELS 3 Zrotation Yrotation Xrotation
						End Site
						{
							OFFSET -0.00000 -0.00000 1.07391
						}
					}
				}
			}
		}
	}
	JOINT lowerback
	{
		OFFSET 0 0 0
		CHANNELS 3 Zrotation Yrotation Xrotation
		JOINT Chest
		{
			OFFSET 0.01174 2.10302 -0.29778
			CHANNELS 3 Zrotation Yrotation Xrotation
			JOINT Chest2
			{
				OFFSET 0.00772 2.13227 -0.01247
				CHANNELS 3 Zrotation Yrotation Xrotation
				JOINT lowerneck
				{
					OFFSET 0 0 0
					CHANNELS 3 Zrotation Yrotation Xrotation
					JOINT Neck
					{
						OFFSET -0.09219 1.60848 0.31481
						CHANNELS 3 Zrotation Yrotation Xrotation
						JOINT Head
						{
							OFFSET 0.13974 1.65456 -0.31134
							CHANNELS 3 Zrotation Yrotation Xrotation
							End Site
							{
								OFFSET 0.04742 1.69515 -0.14578
							}
						}
					}
				}
				JOINT LeftCollar
				{
					OFFSET 0 0 0
					CHANNELS 3 Zrotation Yrotation Xrotation
					JOINT LeftShoulder
					{
						OFFSET 3.24909 1.02882 -0.23993
CHANNELS 3 Zrotation Xrotation Yrotation
						JOINT LeftElbow
						{
OFFSET 0 -5.329550 -0.000000
CHANNELS 3 Zrotation Xrotation Yrotation
							JOINT LeftWrist
							{
OFFSET 0 -3.692320 -0.000000
CHANNELS 3 Zrotation Xrotation Yrotation
								JOINT lhand
								{
									OFFSET 0 0 0
CHANNELS 3 Zrotation Xrotation Yrotation
									JOINT LFingers
									{
OFFSET 0 -0.536600 -0.000000
CHANNELS 3 Zrotation Xrotation Yrotation
										End Site
										{
OFFSET 0 -0.432620 -0.000000
										}
									}
								}
								JOINT LThumb
								{
OFFSET 0 0.000000 0.000000
CHANNELS 3 Zrotation Xrotation Yrotation
									End Site
									{
OFFSET 0 -0.439220 0.439220
									}
								}
							}
						}
					}
				}
				JOINT RightCollar
				{
					OFFSET 0 0 0
					CHANNELS 3 Zrotation Yrotation Xrotation
					JOINT RightShoulder
					{
						OFFSET -3.21387 0.93002 -0.34594
CHANNELS 3 Zrotation Xrotation Yrotation
						JOINT RightElbow
						{
OFFSET 0 -5.234310 0.000000
CHANNELS 3 Zrotation Xrotation Yrotation
							JOINT RightWrist
							{
OFFSET 0 -3.553010 -0.000000
CHANNELS 3 Zrotation Xrotation Yrotation
								JOINT rhand
								{
									OFFSET 0 0 0
CHANNELS 3 Zrotation Xrotation Yrotation
									JOINT RFingers
									{
OFFSET 0 -0.772520 -0.000000
CHANNELS 3 Zrotation Xrotation Yrotation
										End Site
										{
OFFSET 0 -0.622830 -0.000000
										}
									}
								}
								JOINT RThumb
								{
OFFSET 0 0.000000 0.000000
CHANNELS 3 Zrotation Xrotation Yrotation
									End Site
									{
OFFSET 0 -0.632340 0.632340
									}
								}
							}
						}
					}
				}
			}
		}
	}
}
MOTION
Frames: 5
Frame Time: 0.008333333333333333
-12.205100 17.755600 -9.535000 -5.069600 52.155700 -3.303300 0.000000 0.000000 0.000000 -14.770100 -9.963900 -24.637100 2.639800 10.087800 29.261400 0.091100 -1.985800 -5.357800 0.231600 -3.097400 -8.550100 0.000000 0.000000 0.000000 29.026100 -2.724300 4.682100 -0.619700 -5.037900 14.016600 -0.793100 2.603600 -16.145600 -0.329900 -3.691600 10.210600 3.046300 1.283300 11.324700 1.870200 2.214800 1.493100 -0.099700 1.070200 -4.746600 -12.090200 -7.284800 -15.845100 8.648000 -9.493400 32.909900 4.047100 -4.247400 15.215600 0.000000 0.000000 0.000000 0.624500 4.580500 -17.139700 14.447200 -23.370300 3.003200 21.732900 17.136700 -24.596400 0.000000 0.000000 0.000000 -7.125000 0.000000 0.000000 -8.428500 56.014700 2.288900 0.000000 0.000000 0.000000 -2.537000 2.579200 13.340800 -12.950400 -21.214500 -2.435300 -15.374600 8.023500 -7.956800 0.000000 0.000000 0.000000 7.125000 0.000000 -0.000000 8.315300 21.763300 4.688000
-12.123951 17.755733 -9.469278 -5.315604 52.132723 -3.293437 0.000000 0.000000 0.000000 -14.644498 -9.632426 -24.725295 2.151008 9.169895 26.331143 0.091359 -2.320575 -5.378293 0.226634 -3.062859 -8.453961 0.000000 0.000000 0.000000 29.183467 -2.816675 5.383034 -0.532589 -4.675591 12.985733 -0.750042 2.462747 -15.711127 -0.300595 -3.524417 9.742448 3.047271 1.326421 11.001824 2.049643 2.263865 1.643569 0.090442 1.102753 -4.416183 -12.240470 -7.274682 -15.967249 8.648268 -9.405399 32.637286 4.075904 -4.228888 15.112682 0.000000 0.000000 0.000000 0.307937 4.322818 -16.374811 13.937686 -22.645282 2.804310 21.554737 17.970830 -24.465919 0.000000 0.000000 0.000000 -7.125000 0.000000 0.000000 -8.560400 55.843929 2.289620 0.000000 0.000000 0.000000 -2.851441 2.339443 13.631281 -13.018002 -21.313671 -2.459869 -15.255310 8.046612 -7.966106 0.000000 0.000000 0.000000 7.125000 0.000000 0.000000 8.401403 21.759011 4.738278
-12.039373 17.752400 -9.398443 -5.214000 52.228477 -3.068406 0.000000 0.000000 0.000000 -14.851328 -9.238391 -24.744177 1.719727 8.251309 23.482695 0.083481 -3.157190 -5.264589 0.225852 -3.058849 -8.442581 0.000000 0.000000 0.000000 29.104784 -3.091269 6.167926 -0.447383 -4.289689 11.893373 -0.708753 2.258548 -15.296715 -0.260797 -3.284649 9.072366 3.045796 1.430320 11.052623 1.980015 2.402770 1.514439 -0.004658 1.166705 -4.573878 -12.256962 -7.324528 -15.816386 8.750253 -9.522143 32.613161 4.102720 -4.269071 15.091937 0.000000 0.000000 0.000000 0.361180 4.528739 -15.902200 13.484381 -21.992563 2.632097 21.968946 19.022993 -24.704579 0.000000 0.000000 0.000000 -7.125000 0.000000 0.000000 -8.224952 56.175309 2.264815 0.000000 0.000000 0.000000 -2.796409 2.584493 13.647055 -13.117944 -21.459825 -2.496257 -15.275189 8.029707 -7.834494 0.000000 0.000000 0.000000 7.125000 0.000000 0.000000 8.391359 21.892905 4.706737
-11.951109 17.752066 -9.328768 -5.377120 52.271570 -2.968193 0.000000 0.000000 0.000000 -14.785840 -9.081408 -24.831899 1.373282 7.413533 20.947664 0.079389 -3.746464 -5.287319 0.175023 -2.689467 -7.415609 0.000000 0.000000 0.000000 29.182498 -3.356755 6.968546 -0.357729 -3.840254 10.627849 -0.674578 2.137468 -14.933434 -0.223604 -3.043670 8.400410 3.194684 1.472807 10.974468 2.001076 2.476054 1.448126 -0.075370 1.199509 -4.593158 -12.261010 -7.334484 -15.850405 8.757340 -9.531656 32.581291 4.102679 -4.271558 15.086942 0.000000 0.000000 0.000000 0.259815 4.616179 -15.162537 13.053592 -21.365578 2.472865 22.188794 19.852352 -24.396911 0.000000 0.000000 0.000000 -7.125000 0.000000 0.000000 -7.863808 55.904140 2.112952 0.000000 0.000000 0.000000 -2.842303 2.584086 13.765777 -13.134690 -21.484250 -2.502432 -15.237010 8.085569 -7.800414 0.000000 0.000000 0.000000 7.125000 0.000000 0.000000 8.420178 21.929423 4.716117
-11.855849 17.753144 -9.265173 -5.635173 52.222623 -2.833275 0.000000 0.000000 0.000000 -14.583588 -9.107115 -25.102342 1.118105 6.716863 18.879492 0.084042 -4.059475 -5.498887 0.083455 -1.860501 -5.120314 0.000000 0.000000 0.000000 29.243822 -3.630496 7.742357 -0.264044 -3.305356 9.130227 -0.615897 2.111209 -14.252326 -0.253311 -3.238485 8.943528 3.438653 1.547568 10.692568 2.003267 2.591369 1.386104 -0.218309 1.253050 -4.488156 -12.215334 -7.366766 -15.803226 8.807479 -9.613162 32.531041 4.099702 -4.294525 15.064592 0.000000 0.000000 0.000000 0.163789 4.633039 -14.206705 12.662141 -20.790208 2.332066 22.026818 20.824389 -24.547093 0.000000 0.000000 0.000000 -7.125000 0.000000 0.000000 -8.097415 56.025219 2.200257 0.000000 0.000000 0.000000 -2.899343 2.494377 14.057985 -13.098980 -21.431981 -2.489369 -15.527392 7.977524 -7.717270 0.000000 0.000000 0.000000 7.125000 0.000000 0.000000 8.212366 22.002285 4.583602
